<?xml version="1.0" standalone="no"?>
<!DOCTYPE svg PUBLIC "-//W3C//DTD SVG 20010904//EN"
 "http://www.w3.org/TR/2001/REC-SVG-20010904/DTD/svg10.dtd">
<svg version="1.0" xmlns="http://www.w3.org/2000/svg"
 width="185.000000pt" height="203.000000pt" viewBox="0 0 185.000000 203.000000"
 preserveAspectRatio="xMidYMid meet">

<g transform="translate(0.000000,203.000000) scale(0.100000,-0.100000)"
fill="#000000" stroke="none">
<path d="M474 1934 c3 -9 6 -18 6 -20 0 -2 37 -4 83 -4 91 0 131 -13 147 -48
6 -14 10 -107 10 -231 0 -157 3 -211 13 -219 19 -16 262 -20 276 -5 7 8 11 81
11 223 0 127 4 219 10 231 18 32 75 49 169 49 102 0 189 -27 251 -78 37 -31
47 -47 79 -125 15 -38 14 -102 -3 -158 -26 -85 -42 -107 -121 -167 -5 -4 -28
-13 -50 -19 -22 -7 -51 -15 -65 -19 -14 -5 -167 -11 -340 -15 -329 -8 -430
-15 -430 -30 0 -5 -13 -9 -30 -9 -16 0 -30 -4 -30 -10 0 -5 -7 -10 -16 -10
-22 0 -132 -59 -168 -90 -35 -30 -115 -110 -136 -136 -25 -31 -80 -144 -80
-164 0 -10 -4 -21 -9 -24 -4 -3 -11 -29 -15 -58 -4 -29 -9 -75 -13 -102 -6
-49 13 -183 29 -201 4 -5 8 -15 8 -23 0 -18 53 -123 77 -153 43 -54 96 -109
105 -109 5 0 20 -11 33 -24 30 -30 144 -86 200 -98 144 -32 349 -34 435 -3 48
17 142 63 150 74 3 3 21 18 40 32 55 42 76 62 89 87 12 23 9 52 -6 52 -13 0
-63 -46 -63 -58 0 -6 -6 -15 -14 -19 -8 -4 -32 -25 -55 -45 -22 -21 -47 -38
-56 -38 -8 0 -15 -4 -15 -8 0 -18 -183 -56 -241 -49 -94 11 -134 20 -137 28
-2 5 -10 9 -18 9 -26 0 -82 39 -134 94 -15 15 -42 60 -60 100 -18 39 -36 79
-41 88 -5 10 -9 31 -9 47 0 17 -4 32 -9 35 -10 6 -24 138 -23 221 0 88 13 205
23 211 5 3 9 18 9 34 0 16 4 32 10 35 6 3 10 17 10 31 0 13 4 24 9 24 5 0 11
8 14 18 16 48 82 126 118 137 11 4 19 10 19 14 0 12 92 49 138 54 73 9 72 10
67 -266 -2 -133 -5 -254 -5 -268 0 -41 -68 -69 -165 -69 -68 0 -75 -2 -75 -20
0 -20 5 -20 403 -18 349 3 402 5 402 18 0 12 -19 16 -85 21 -47 3 -100 9 -117
13 -61 14 -63 22 -63 317 0 245 1 267 18 274 9 4 76 9 147 11 131 4 244 17
301 35 17 5 38 9 47 9 24 0 118 45 147 70 110 94 125 123 125 238 0 59 -4 87
-13 90 -6 2 -12 10 -12 19 0 51 -192 162 -282 163 -15 0 -30 5 -33 10 -4 6
-182 10 -502 10 -447 0 -495 -2 -489 -16z"/>
</g>
</svg>
